<mxfile host="app.diagrams.net" modified="2023-07-28T05:58:09.397Z" agent="Mozilla/5.0 (Macintosh; Intel Mac OS X 10_15_7) AppleWebKit/537.36 (KHTML, like Gecko) Chrome/114.0.0.0 Safari/537.36" version="21.3.8" etag="Xe6-zqzYCBEoL21NgXwk" type="github">
  <diagram name="第 1 页" id="0QKz6morQthlcy29n8ck">
    <mxGraphModel>
      <root>
        <mxCell id="0" />
        <mxCell id="1" parent="0" />
      </root>
    </mxGraphModel>
  </diagram>
</mxfile>
